<?xml version="1.0" encoding="utf-8"?>
<!-- Generator: Adobe Illustrator 19.1.0, SVG Export Plug-In . SVG Version: 6.00 Build 0)  -->
<!DOCTYPE svg PUBLIC "-//W3C//DTD SVG 1.1//EN" "http://www.w3.org/Graphics/SVG/1.1/DTD/svg11.dtd">
<svg version="1.1" id="Layer_1" xmlns="http://www.w3.org/2000/svg" xmlns:xlink="http://www.w3.org/1999/xlink" x="0px" y="0px"
	 viewBox="0 0 221.1 85" style="enable-background:new 0 0 221.1 85;" xml:space="preserve">
<style type="text/css">
	.st0{fill:#383938;}
</style>
<path class="st0" d="M16.5,51.8L10.7,46l11.2-11.2l5.8,5.8L16.5,51.8z M11.6,46l4.9,4.9l10.3-10.3l-4.9-4.9L11.6,46z"/>
<path class="st0" d="M27.3,51.8L21.5,46l11.2-11.2l5.8,5.8L27.3,51.8z M22.4,46l4.9,4.9l10.3-10.3l-4.9-4.9L22.4,46z"/>
<path class="st0" d="M24.2,62.3c-10.5,0-19-8.5-19-19s8.5-19,19-19s19,8.5,19,19S34.6,62.3,24.2,62.3z M24.2,25.1
	c-10,0-18.2,8.2-18.2,18.2c0,10,8.2,18.2,18.2,18.2s18.2-8.2,18.2-18.2C42.4,33.2,34.2,25.1,24.2,25.1z"/>
<g>
	<path class="st0" d="M54.6,49.6V35.3h2v5.6c0.3-0.3,0.7-0.5,1.2-0.6c0.5-0.2,1-0.3,1.5-0.3c1.3,0,2.5,0.5,3.4,1.4s1.3,2.1,1.3,3.5
		c0,1.4-0.4,2.6-1.3,3.5s-2,1.4-3.4,1.4c-0.5,0-0.9-0.1-1.4-0.2c-0.5-0.2-0.9-0.4-1.3-0.6v0.7H54.6z M56.2,44.9
		c0,0.7,0.1,1.2,0.4,1.8c0.2,0.5,0.6,0.9,1,1.1c0.4,0.3,0.9,0.4,1.5,0.4c0.8,0,1.5-0.3,2.1-0.9c0.6-0.6,0.9-1.4,0.9-2.3
		c0-0.9-0.3-1.7-0.8-2.3c-0.6-0.6-1.3-0.9-2.1-0.9c-0.6,0-1,0.1-1.5,0.4c-0.4,0.2-0.8,0.6-1,1.1C56.3,43.7,56.2,44.3,56.2,44.9z"/>
	<path class="st0" d="M65.9,49.6v-9.4h2v1.3c0.1-0.4,0.4-0.8,0.8-1.1c0.4-0.3,0.9-0.4,1.5-0.4c0.5,0,1,0.1,1.3,0.3l-0.4,1.5
		c-0.1,0-0.2-0.1-0.4-0.1c-0.2,0-0.4-0.1-0.5-0.1c-0.5,0-1,0.2-1.3,0.5c-0.4,0.3-0.6,0.7-0.8,1.2c-0.2,0.5-0.3,1.1-0.3,1.7v4.5H65.9
		z"/>
	<path class="st0" d="M72.8,36.8c0-0.3,0.1-0.5,0.3-0.8c0.2-0.2,0.5-0.3,0.8-0.3c0.3,0,0.6,0.1,0.8,0.3c0.2,0.2,0.3,0.5,0.3,0.8
		c0,0.3-0.1,0.6-0.3,0.8c-0.2,0.2-0.5,0.3-0.8,0.3c-0.3,0-0.5-0.1-0.8-0.3C72.9,37.3,72.8,37.1,72.8,36.8z M72.9,49.6v-9.4h2v9.4
		H72.9z"/>
	<path class="st0" d="M77.1,44.9c0-0.9,0.2-1.7,0.7-2.5c0.4-0.7,1-1.3,1.8-1.8c0.7-0.4,1.6-0.6,2.5-0.6c1.5,0,2.7,0.5,3.6,1.4
		l-1.4,1.2c-0.5-0.7-1.3-1-2.2-1c-0.8,0-1.5,0.3-2.1,0.9C79.3,43.2,79,44,79,44.9c0,0.9,0.3,1.7,0.9,2.3c0.6,0.6,1.3,0.9,2.1,0.9
		c1,0,1.7-0.3,2.2-1l1.4,1.2c-0.9,0.9-2.1,1.4-3.6,1.4c-0.9,0-1.7-0.2-2.5-0.6c-0.7-0.4-1.3-1-1.8-1.7
		C77.3,46.6,77.1,45.8,77.1,44.9z"/>
	<path class="st0" d="M87.6,49.6V35.3h2v8.2l3.8-3.3h3l-4.4,3.7l4.6,5.7h-2.5L90.6,45l-1,0.9v3.7H87.6z"/>
	<path class="st0" d="M97.7,48.3l1.3-1.3c0.5,0.7,1.2,1,2.1,1c0.5,0,0.9-0.1,1.2-0.2c0.4-0.2,0.6-0.4,0.7-0.6c0-0.1,0-0.2,0.1-0.3
		c0-0.1,0-0.2,0-0.2c0-0.1,0-0.1,0-0.2l0-0.1c0-0.1-0.1-0.2-0.1-0.2c-0.1-0.1-0.1-0.1-0.2-0.2s-0.2-0.1-0.2-0.1
		c-0.1,0-0.2-0.1-0.3-0.1c-0.2,0-0.3-0.1-0.3-0.1c-0.1,0-0.2,0-0.4-0.1c-0.2,0-0.3-0.1-0.4-0.1c-0.4-0.1-0.7-0.2-1-0.3
		c-0.2-0.1-0.5-0.2-0.8-0.3c-0.3-0.1-0.6-0.3-0.8-0.6S98.1,44,98,43.7c-0.1-0.3-0.2-0.6-0.2-0.9c0-0.4,0.1-0.8,0.3-1.3
		c0.1-0.3,0.3-0.5,0.6-0.7c0.2-0.2,0.5-0.4,0.7-0.5c0.2-0.1,0.5-0.2,0.7-0.2c0.3-0.1,0.5-0.1,0.6-0.1c0.1,0,0.2,0,0.3,0
		c0.7,0,1.3,0.1,1.9,0.4c0.6,0.2,1.1,0.6,1.5,1l-1.3,1.3c-0.5-0.7-1.2-1-2.1-1c0,0-0.1,0-0.1,0c-0.1,0-0.2,0-0.3,0
		c-0.1,0-0.3,0.1-0.4,0.1c-0.1,0-0.2,0.1-0.4,0.2c-0.1,0.1-0.2,0.2-0.3,0.3c-0.1,0.1-0.1,0.3-0.1,0.5c0,0.1,0,0.2,0.1,0.3
		c0.1,0.2,0.3,0.4,0.6,0.5c0.3,0.1,0.7,0.2,1.2,0.4c0.1,0,0.1,0,0.2,0c0.3,0.1,0.5,0.1,0.6,0.2s0.3,0.1,0.6,0.2
		c0.3,0.1,0.5,0.2,0.6,0.2c0.1,0.1,0.3,0.2,0.5,0.3c0.2,0.1,0.3,0.3,0.5,0.4c0.1,0.2,0.2,0.4,0.3,0.6c0.1,0.3,0.2,0.7,0.2,1
		c0,0.4-0.1,0.7-0.2,1c-0.2,0.6-0.7,1-1.3,1.3c-0.6,0.3-1.3,0.5-2.1,0.5h0c-0.6,0-1.3-0.1-1.8-0.4C98.7,49.1,98.2,48.8,97.7,48.3z"
		/>
	<path class="st0" d="M106.8,41.8v-1.6h1.1v-0.9c0-0.8,0-1.3,0.1-1.6c0.1-0.3,0.2-0.7,0.5-1.1c0.5-0.9,1.5-1.3,2.7-1.3
		c0.4,0,0.8,0.1,1.1,0.3v1.5c-0.3-0.1-0.5-0.2-0.8-0.2c-0.2,0-0.4,0-0.6,0.1c-0.3,0.1-0.6,0.3-0.7,0.5c-0.1,0.2-0.2,0.4-0.3,0.7
		c-0.1,0.3-0.1,0.7-0.1,1.2v0.9h2.4v1.6h-2.4v7.8h-2v-7.8H106.8z"/>
	<path class="st0" d="M114.3,47.4c-0.4-0.7-0.7-1.6-0.7-2.5c0-0.9,0.2-1.7,0.7-2.5c0.4-0.7,1-1.3,1.8-1.8c0.7-0.4,1.6-0.6,2.5-0.6
		s1.7,0.2,2.5,0.6c0.7,0.4,1.3,1,1.8,1.8c0.4,0.7,0.7,1.6,0.7,2.5c0,0.9-0.2,1.7-0.7,2.5c-0.4,0.7-1,1.3-1.8,1.7
		c-0.7,0.4-1.6,0.6-2.5,0.6s-1.7-0.2-2.5-0.6C115.3,48.7,114.7,48.1,114.3,47.4z M115.6,44.9c0,0.9,0.3,1.7,0.8,2.3
		c0.6,0.6,1.3,0.9,2.1,0.9s1.5-0.3,2.1-0.9c0.6-0.6,0.9-1.4,0.9-2.3c0-0.9-0.3-1.7-0.8-2.3c-0.6-0.6-1.3-0.9-2.1-0.9
		c-0.8,0-1.5,0.3-2.1,0.9C115.9,43.2,115.6,44,115.6,44.9z"/>
	<path class="st0" d="M125.5,49.6v-9.4h2v1.3c0.1-0.4,0.4-0.8,0.8-1.1c0.4-0.3,0.9-0.4,1.5-0.4c0.5,0,1,0.1,1.3,0.3l-0.4,1.5
		c-0.1,0-0.2-0.1-0.4-0.1c-0.2,0-0.4-0.1-0.5-0.1c-0.5,0-1,0.2-1.3,0.5c-0.4,0.3-0.6,0.7-0.8,1.2c-0.2,0.5-0.3,1.1-0.3,1.7v4.5
		H125.5z"/>
	<path class="st0" d="M132.3,49.6V35.3h2v5.6c0.3-0.3,0.7-0.5,1.2-0.6c0.5-0.2,1-0.3,1.5-0.3c1.3,0,2.5,0.5,3.4,1.4s1.3,2.1,1.3,3.5
		c0,1.4-0.4,2.6-1.3,3.5s-2,1.4-3.4,1.4c-0.5,0-0.9-0.1-1.4-0.2c-0.5-0.2-0.9-0.4-1.3-0.6v0.7H132.3z M133.9,44.9
		c0,0.7,0.1,1.2,0.4,1.8c0.2,0.5,0.6,0.9,1,1.1c0.4,0.3,0.9,0.4,1.5,0.4c0.8,0,1.5-0.3,2.1-0.9c0.6-0.6,0.9-1.4,0.9-2.3
		c0-0.9-0.3-1.7-0.8-2.3c-0.6-0.6-1.3-0.9-2.1-0.9c-0.6,0-1,0.1-1.5,0.4c-0.4,0.2-0.8,0.6-1,1.1C134,43.7,133.9,44.3,133.9,44.9z"/>
	<path class="st0" d="M143.6,49.6v-9.4h2v1.3c0.1-0.4,0.4-0.8,0.8-1.1c0.4-0.3,0.9-0.4,1.5-0.4c0.5,0,1,0.1,1.3,0.3l-0.4,1.5
		c-0.1,0-0.2-0.1-0.4-0.1c-0.2,0-0.4-0.1-0.5-0.1c-0.5,0-1,0.2-1.3,0.5c-0.4,0.3-0.6,0.7-0.8,1.2c-0.2,0.5-0.3,1.1-0.3,1.7v4.5
		H143.6z"/>
	<path class="st0" d="M151.1,48.4c-0.9-0.9-1.3-2.1-1.3-3.5c0-1.4,0.4-2.6,1.3-3.5c0.9-0.9,2-1.4,3.4-1.4c2.6,0,4.2,1.3,4.6,4
		c0,0.3,0.1,0.6,0.1,0.9v0.7h-7.4c0,0.3,0.1,0.6,0.2,0.9c0.1,0.3,0.3,0.5,0.5,0.7c0.2,0.2,0.4,0.4,0.7,0.5c0.2,0.1,0.5,0.2,0.8,0.3
		c0.3,0.1,0.5,0.1,0.8,0.1c0.5,0,0.9-0.1,1.3-0.3c0.4-0.2,0.8-0.5,1.1-0.9l1.3,1.2c-0.4,0.5-0.8,0.9-1.4,1.2
		c-0.6,0.3-1.4,0.4-2.3,0.4C153.2,49.8,152,49.3,151.1,48.4z M151.9,44h5.3c0-0.7-0.3-1.3-0.8-1.7c-0.5-0.4-1.1-0.6-1.9-0.6
		c-0.7,0-1.4,0.2-1.9,0.7C152.1,42.7,151.9,43.3,151.9,44z"/>
	<path class="st0" d="M160.7,46.8c0-0.6,0.1-1.1,0.3-1.5c0.2-0.4,0.5-0.8,0.8-1c0.3-0.2,0.7-0.4,1.1-0.5c0.4-0.1,0.9-0.2,1.3-0.2
		h2.7V43c0-0.9-0.6-1.4-1.8-1.4c-0.4,0-0.9,0.1-1.3,0.3c-0.4,0.2-0.7,0.5-1,0.9l-1.3-1.2c0.5-0.5,1-0.9,1.6-1.2
		c0.6-0.3,1.3-0.4,2-0.4c0.6,0,1.2,0.1,1.7,0.3c0.5,0.2,0.9,0.4,1.2,0.7c0.3,0.3,0.5,0.6,0.7,1c0.1,0.3,0.2,0.7,0.2,1.1v6.6h-2v-1
		c-0.3,0.4-0.7,0.7-1.2,0.9c-0.5,0.2-1,0.3-1.4,0.3c-1.1,0-1.9-0.3-2.6-0.8S160.7,47.7,160.7,46.8z M162.7,46.9
		c0.1,0.8,0.7,1.3,1.8,1.3c0.8,0,1.4-0.2,1.8-0.5s0.6-0.6,0.6-1v-1.4h-2.4c-0.6,0-1.1,0.1-1.4,0.4c-0.3,0.2-0.4,0.6-0.4,1
		C162.7,46.7,162.7,46.8,162.7,46.9z"/>
	<path class="st0" d="M171.4,49.6V35.3h2v8.2l3.8-3.3h3l-4.4,3.7l4.6,5.7H178l-3.6-4.5l-1,0.9v3.7H171.4z"/>
	<path class="st0" d="M181.6,41.8v-1.6h1.1v-0.9c0-0.8,0-1.3,0.1-1.6c0.1-0.3,0.2-0.7,0.5-1.1c0.5-0.9,1.5-1.3,2.7-1.3
		c0.4,0,0.8,0.1,1.1,0.3v1.5c-0.3-0.1-0.5-0.2-0.8-0.2c-0.2,0-0.4,0-0.6,0.1c-0.3,0.1-0.6,0.3-0.7,0.5s-0.2,0.4-0.3,0.7
		c-0.1,0.3-0.1,0.7-0.1,1.2v0.9h2.4v1.6h-2.4v7.8h-2v-7.8H181.6z"/>
	<path class="st0" d="M188.5,46.8c0-0.6,0.1-1.1,0.3-1.5c0.2-0.4,0.5-0.8,0.8-1c0.3-0.2,0.7-0.4,1.1-0.5c0.4-0.1,0.9-0.2,1.3-0.2
		h2.7V43c0-0.9-0.6-1.4-1.8-1.4c-0.4,0-0.9,0.1-1.3,0.3c-0.4,0.2-0.7,0.5-1,0.9l-1.3-1.2c0.5-0.5,1-0.9,1.6-1.2
		c0.6-0.3,1.3-0.4,2-0.4c0.6,0,1.2,0.1,1.7,0.3c0.5,0.2,0.9,0.4,1.2,0.7c0.3,0.3,0.5,0.6,0.7,1c0.1,0.3,0.2,0.7,0.2,1.1v6.6h-2v-1
		c-0.3,0.4-0.7,0.7-1.2,0.9c-0.5,0.2-1,0.3-1.4,0.3c-1.1,0-1.9-0.3-2.6-0.8S188.5,47.7,188.5,46.8z M190.5,46.9
		c0.1,0.8,0.7,1.3,1.8,1.3c0.8,0,1.4-0.2,1.8-0.5s0.6-0.6,0.6-1v-1.4h-2.4c-0.6,0-1.1,0.1-1.4,0.4c-0.3,0.2-0.4,0.6-0.4,1
		C190.5,46.7,190.5,46.8,190.5,46.9z"/>
	<path class="st0" d="M198.7,48.3l1.3-1.3c0.5,0.7,1.2,1,2.1,1c0.5,0,0.9-0.1,1.2-0.2s0.6-0.4,0.7-0.6c0-0.1,0-0.2,0.1-0.3
		s0-0.2,0-0.2c0-0.1,0-0.1,0-0.2l0-0.1c0-0.1-0.1-0.2-0.1-0.2c-0.1-0.1-0.1-0.1-0.2-0.2c-0.1-0.1-0.2-0.1-0.2-0.1s-0.2-0.1-0.3-0.1
		c-0.2,0-0.3-0.1-0.3-0.1c-0.1,0-0.2,0-0.4-0.1c-0.2,0-0.3-0.1-0.4-0.1c-0.4-0.1-0.7-0.2-1-0.3c-0.2-0.1-0.5-0.2-0.8-0.3
		s-0.6-0.3-0.8-0.6c-0.2-0.2-0.4-0.5-0.5-0.8c-0.1-0.3-0.2-0.6-0.2-0.9c0-0.4,0.1-0.8,0.3-1.3c0.1-0.3,0.3-0.5,0.6-0.7
		c0.2-0.2,0.5-0.4,0.7-0.5c0.2-0.1,0.5-0.2,0.7-0.2c0.3-0.1,0.5-0.1,0.6-0.1c0.1,0,0.2,0,0.3,0c0.7,0,1.3,0.1,1.9,0.4
		c0.6,0.2,1.1,0.6,1.5,1l-1.3,1.3c-0.5-0.7-1.2-1-2.1-1c0,0-0.1,0-0.1,0c-0.1,0-0.2,0-0.3,0c-0.1,0-0.3,0.1-0.4,0.1
		c-0.1,0-0.2,0.1-0.4,0.2c-0.1,0.1-0.2,0.2-0.3,0.3c-0.1,0.1-0.1,0.3-0.1,0.5c0,0.1,0,0.2,0.1,0.3c0.1,0.2,0.3,0.4,0.6,0.5
		c0.3,0.1,0.7,0.2,1.2,0.4c0.1,0,0.1,0,0.2,0c0.3,0.1,0.5,0.1,0.6,0.2s0.3,0.1,0.6,0.2c0.3,0.1,0.5,0.2,0.6,0.2
		c0.1,0.1,0.3,0.2,0.5,0.3c0.2,0.1,0.3,0.3,0.5,0.4c0.1,0.2,0.2,0.4,0.3,0.6c0.1,0.3,0.2,0.7,0.2,1c0,0.4-0.1,0.7-0.2,1
		c-0.2,0.6-0.7,1-1.3,1.3s-1.3,0.5-2.1,0.5h0c-0.6,0-1.3-0.1-1.8-0.4C199.7,49.1,199.2,48.8,198.7,48.3z"/>
	<path class="st0" d="M207.4,41.8v-1.6h1.1v-3h2v3h2.4v1.6h-2.4v3.7c0,0.8,0.1,1.4,0.2,1.7c0.1,0.3,0.4,0.6,0.9,0.8
		c0.2,0.1,0.4,0.1,0.6,0.1c0.2,0,0.5-0.1,0.8-0.2v1.5c-0.3,0.2-0.7,0.3-1.1,0.3c-1.3,0-2.2-0.4-2.7-1.3c-0.3-0.4-0.4-0.8-0.5-1.2
		s-0.1-0.9-0.1-1.7v-3.7H207.4z"/>
</g>
</svg>
