<?xml version="1.0" encoding="UTF-8" standalone="no"?><!DOCTYPE svg PUBLIC "-//W3C//DTD SVG 1.1//EN" "http://www.w3.org/Graphics/SVG/1.1/DTD/svg11.dtd"><svg width="100%" height="100%" viewBox="0 0 222 85" version="1.1" xmlns="http://www.w3.org/2000/svg" xmlns:xlink="http://www.w3.org/1999/xlink" xml:space="preserve" style="fill-rule:evenodd;clip-rule:evenodd;stroke-linejoin:round;stroke-miterlimit:1.41421;"><circle cx="24.371" cy="43.3" r="20.027" style="fill:#383938;"/><path d="M16.5,51.8l-5.8,-5.8l11.2,-11.2l5.8,5.8l-11.2,11.2Zm-4.9,-5.8l4.9,4.9l10.3,-10.3l-4.9,-4.9l-10.3,10.3Z" style="fill:#fff;fill-rule:nonzero;"/><path d="M27.3,51.8l-5.8,-5.8l11.2,-11.2l5.8,5.8l-11.2,11.2Zm-4.9,-5.8l4.9,4.9l10.3,-10.3l-4.9,-4.9l-10.3,10.3Z" style="fill:#fff;fill-rule:nonzero;"/><g><path d="M54.6,49.6l0,-14.3l2,0l0,5.6c0.3,-0.3 0.7,-0.5 1.2,-0.6c0.5,-0.2 1,-0.3 1.5,-0.3c1.3,0 2.5,0.5 3.4,1.4c0.9,0.9 1.3,2.1 1.3,3.5c0,1.4 -0.4,2.6 -1.3,3.5c-0.9,0.9 -2,1.4 -3.4,1.4c-0.5,0 -0.9,-0.1 -1.4,-0.2c-0.5,-0.2 -0.9,-0.4 -1.3,-0.6l0,0.7l-2,0l0,-0.1Zm1.6,-4.7c0,0.7 0.1,1.2 0.4,1.8c0.2,0.5 0.6,0.9 1,1.1c0.4,0.3 0.9,0.4 1.5,0.4c0.8,0 1.5,-0.3 2.1,-0.9c0.6,-0.6 0.9,-1.4 0.9,-2.3c0,-0.9 -0.3,-1.7 -0.8,-2.3c-0.6,-0.6 -1.3,-0.9 -2.1,-0.9c-0.6,0 -1,0.1 -1.5,0.4c-0.4,0.2 -0.8,0.6 -1,1.1c-0.4,0.4 -0.5,1 -0.5,1.6Z" style="fill:#383938;fill-rule:nonzero;"/><path d="M65.9,49.6l0,-9.4l2,0l0,1.3c0.1,-0.4 0.4,-0.8 0.8,-1.1c0.4,-0.3 0.9,-0.4 1.5,-0.4c0.5,0 1,0.1 1.3,0.3l-0.4,1.5c-0.1,0 -0.2,-0.1 -0.4,-0.1c-0.2,0 -0.4,-0.1 -0.5,-0.1c-0.5,0 -1,0.2 -1.3,0.5c-0.4,0.3 -0.6,0.7 -0.8,1.2c-0.2,0.5 -0.3,1.1 -0.3,1.7l0,4.5l-1.9,0l0,0.1Z" style="fill:#383938;fill-rule:nonzero;"/><path d="M72.8,36.8c0,-0.3 0.1,-0.5 0.3,-0.8c0.2,-0.2 0.5,-0.3 0.8,-0.3c0.3,0 0.6,0.1 0.8,0.3c0.2,0.2 0.3,0.5 0.3,0.8c0,0.3 -0.1,0.6 -0.3,0.8c-0.2,0.2 -0.5,0.3 -0.8,0.3c-0.3,0 -0.5,-0.1 -0.8,-0.3c-0.2,-0.3 -0.3,-0.5 -0.3,-0.8Zm0.1,12.8l0,-9.4l2,0l0,9.4l-2,0Z" style="fill:#383938;fill-rule:nonzero;"/><path d="M77.1,44.9c0,-0.9 0.2,-1.7 0.7,-2.5c0.4,-0.7 1,-1.3 1.8,-1.8c0.7,-0.4 1.6,-0.6 2.5,-0.6c1.5,0 2.7,0.5 3.6,1.4l-1.4,1.2c-0.5,-0.7 -1.3,-1 -2.2,-1c-0.8,0 -1.5,0.3 -2.1,0.9c-0.7,0.7 -1,1.5 -1,2.4c0,0.9 0.3,1.7 0.9,2.3c0.6,0.6 1.3,0.9 2.1,0.9c1,0 1.7,-0.3 2.2,-1l1.4,1.2c-0.9,0.9 -2.1,1.4 -3.6,1.4c-0.9,0 -1.7,-0.2 -2.5,-0.6c-0.7,-0.4 -1.3,-1 -1.8,-1.7c-0.4,-0.8 -0.6,-1.6 -0.6,-2.5Z" style="fill:#383938;fill-rule:nonzero;"/><path d="M87.6,49.6l0,-14.3l2,0l0,8.2l3.8,-3.3l3,0l-4.4,3.7l4.6,5.7l-2.5,0l-3.5,-4.6l-1,0.9l0,3.7l-2,0Z" style="fill:#383938;fill-rule:nonzero;"/><path d="M97.7,48.3l1.3,-1.3c0.5,0.7 1.2,1 2.1,1c0.5,0 0.9,-0.1 1.2,-0.2c0.4,-0.2 0.6,-0.4 0.7,-0.6c0,-0.1 0,-0.2 0.1,-0.3c0,-0.1 0,-0.2 0,-0.2c0,-0.1 0,-0.1 0,-0.2l0,-0.1c0,-0.1 -0.1,-0.2 -0.1,-0.2c-0.1,-0.1 -0.1,-0.1 -0.2,-0.2c-0.1,-0.1 -0.2,-0.1 -0.2,-0.1c-0.1,0 -0.2,-0.1 -0.3,-0.1c-0.2,0 -0.3,-0.1 -0.3,-0.1c-0.1,0 -0.2,0 -0.4,-0.1c-0.2,0 -0.3,-0.1 -0.4,-0.1c-0.4,-0.1 -0.7,-0.2 -1,-0.3c-0.2,-0.1 -0.5,-0.2 -0.8,-0.3c-0.3,-0.1 -0.6,-0.3 -0.8,-0.6c-0.2,-0.3 -0.5,-0.3 -0.6,-0.6c-0.1,-0.3 -0.2,-0.6 -0.2,-0.9c0,-0.4 0.1,-0.8 0.3,-1.3c0.1,-0.3 0.3,-0.5 0.6,-0.7c0.2,-0.2 0.5,-0.4 0.7,-0.5c0.2,-0.1 0.5,-0.2 0.7,-0.2c0.3,-0.1 0.5,-0.1 0.6,-0.1c0.1,0 0.2,0 0.3,0c0.7,0 1.3,0.1 1.9,0.4c0.6,0.2 1.1,0.6 1.5,1l-1.3,1.3c-0.5,-0.7 -1.2,-1 -2.1,-1l-0.1,0c-0.1,0 -0.2,0 -0.3,0c-0.1,0 -0.3,0.1 -0.4,0.1c-0.1,0 -0.2,0.1 -0.4,0.2c-0.1,0.1 -0.2,0.2 -0.3,0.3c-0.1,0.1 -0.1,0.3 -0.1,0.5c0,0.1 0,0.2 0.1,0.3c0.1,0.2 0.3,0.4 0.6,0.5c0.3,0.1 0.7,0.2 1.2,0.4c0.1,0 0.1,0 0.2,0c0.3,0.1 0.5,0.1 0.6,0.2c0.1,0.1 0.3,0.1 0.6,0.2c0.3,0.1 0.5,0.2 0.6,0.2c0.1,0.1 0.3,0.2 0.5,0.3c0.2,0.1 0.3,0.3 0.5,0.4c0.1,0.2 0.2,0.4 0.3,0.6c0.1,0.3 0.2,0.7 0.2,1c0,0.4 -0.1,0.7 -0.2,1c-0.2,0.6 -0.7,1 -1.3,1.3c-0.6,0.3 -1.3,0.5 -2.1,0.5c-0.6,0 -1.3,-0.1 -1.8,-0.4c-0.7,-0.2 -1.2,-0.5 -1.7,-1Z" style="fill:#383938;fill-rule:nonzero;"/><path d="M106.8,41.8l0,-1.6l1.1,0l0,-0.9c0,-0.8 0,-1.3 0.1,-1.6c0.1,-0.3 0.2,-0.7 0.5,-1.1c0.5,-0.9 1.5,-1.3 2.7,-1.3c0.4,0 0.8,0.1 1.1,0.3l0,1.5c-0.3,-0.1 -0.5,-0.2 -0.8,-0.2c-0.2,0 -0.4,0 -0.6,0.1c-0.3,0.1 -0.6,0.3 -0.7,0.5c-0.1,0.2 -0.2,0.4 -0.3,0.7c-0.1,0.3 -0.1,0.7 -0.1,1.2l0,0.9l2.4,0l0,1.6l-2.4,0l0,7.8l-2,0l0,-7.8l-1,0l0,-0.1Z" style="fill:#383938;fill-rule:nonzero;"/><path d="M114.3,47.4c-0.4,-0.7 -0.7,-1.6 -0.7,-2.5c0,-0.9 0.2,-1.7 0.7,-2.5c0.4,-0.7 1,-1.3 1.8,-1.8c0.7,-0.4 1.6,-0.6 2.5,-0.6c0.9,0 1.7,0.2 2.5,0.6c0.7,0.4 1.3,1 1.8,1.8c0.4,0.7 0.7,1.6 0.7,2.5c0,0.9 -0.2,1.7 -0.7,2.5c-0.4,0.7 -1,1.3 -1.8,1.7c-0.7,0.4 -1.6,0.6 -2.5,0.6c-0.9,0 -1.7,-0.2 -2.5,-0.6c-0.8,-0.4 -1.4,-1 -1.8,-1.7Zm1.3,-2.5c0,0.9 0.3,1.7 0.8,2.3c0.6,0.6 1.3,0.9 2.1,0.9c0.8,0 1.5,-0.3 2.1,-0.9c0.6,-0.6 0.9,-1.4 0.9,-2.3c0,-0.9 -0.3,-1.7 -0.8,-2.3c-0.6,-0.6 -1.3,-0.9 -2.1,-0.9c-0.8,0 -1.5,0.3 -2.1,0.9c-0.6,0.6 -0.9,1.4 -0.9,2.3Z" style="fill:#383938;fill-rule:nonzero;"/><path d="M125.5,49.6l0,-9.4l2,0l0,1.3c0.1,-0.4 0.4,-0.8 0.8,-1.1c0.4,-0.3 0.9,-0.4 1.5,-0.4c0.5,0 1,0.1 1.3,0.3l-0.4,1.5c-0.1,0 -0.2,-0.1 -0.4,-0.1c-0.2,0 -0.4,-0.1 -0.5,-0.1c-0.5,0 -1,0.2 -1.3,0.5c-0.4,0.3 -0.6,0.7 -0.8,1.2c-0.2,0.5 -0.3,1.1 -0.3,1.7l0,4.5l-1.9,0l0,0.1Z" style="fill:#383938;fill-rule:nonzero;"/><path d="M132.3,49.6l0,-14.3l2,0l0,5.6c0.3,-0.3 0.7,-0.5 1.2,-0.6c0.5,-0.2 1,-0.3 1.5,-0.3c1.3,0 2.5,0.5 3.4,1.4c0.9,0.9 1.3,2.1 1.3,3.5c0,1.4 -0.4,2.6 -1.3,3.5c-0.9,0.9 -2,1.4 -3.4,1.4c-0.5,0 -0.9,-0.1 -1.4,-0.2c-0.5,-0.2 -0.9,-0.4 -1.3,-0.6l0,0.7l-2,0l0,-0.1Zm1.6,-4.7c0,0.7 0.1,1.2 0.4,1.8c0.2,0.5 0.6,0.9 1,1.1c0.4,0.3 0.9,0.4 1.5,0.4c0.8,0 1.5,-0.3 2.1,-0.9c0.6,-0.6 0.9,-1.4 0.9,-2.3c0,-0.9 -0.3,-1.7 -0.8,-2.3c-0.6,-0.6 -1.3,-0.9 -2.1,-0.9c-0.6,0 -1,0.1 -1.5,0.4c-0.4,0.2 -0.8,0.6 -1,1.1c-0.4,0.4 -0.5,1 -0.5,1.6Z" style="fill:#383938;fill-rule:nonzero;"/><path d="M143.6,49.6l0,-9.4l2,0l0,1.3c0.1,-0.4 0.4,-0.8 0.8,-1.1c0.4,-0.3 0.9,-0.4 1.5,-0.4c0.5,0 1,0.1 1.3,0.3l-0.4,1.5c-0.1,0 -0.2,-0.1 -0.4,-0.1c-0.2,0 -0.4,-0.1 -0.5,-0.1c-0.5,0 -1,0.2 -1.3,0.5c-0.4,0.3 -0.6,0.7 -0.8,1.2c-0.2,0.5 -0.3,1.1 -0.3,1.7l0,4.5l-1.9,0l0,0.1Z" style="fill:#383938;fill-rule:nonzero;"/><path d="M151.1,48.4c-0.9,-0.9 -1.3,-2.1 -1.3,-3.5c0,-1.4 0.4,-2.6 1.3,-3.5c0.9,-0.9 2,-1.4 3.4,-1.4c2.6,0 4.2,1.3 4.6,4c0,0.3 0.1,0.6 0.1,0.9l0,0.7l-7.4,0c0,0.3 0.1,0.6 0.2,0.9c0.1,0.3 0.3,0.5 0.5,0.7c0.2,0.2 0.4,0.4 0.7,0.5c0.2,0.1 0.5,0.2 0.8,0.3c0.3,0.1 0.5,0.1 0.8,0.1c0.5,0 0.9,-0.1 1.3,-0.3c0.4,-0.2 0.8,-0.5 1.1,-0.9l1.3,1.2c-0.4,0.5 -0.8,0.9 -1.4,1.2c-0.6,0.3 -1.4,0.4 -2.3,0.4c-1.6,0.1 -2.8,-0.4 -3.7,-1.3Zm0.8,-4.4l5.3,0c0,-0.7 -0.3,-1.3 -0.8,-1.7c-0.5,-0.4 -1.1,-0.6 -1.9,-0.6c-0.7,0 -1.4,0.2 -1.9,0.7c-0.5,0.3 -0.7,0.9 -0.7,1.6Z" style="fill:#383938;fill-rule:nonzero;"/><path d="M160.7,46.8c0,-0.6 0.1,-1.1 0.3,-1.5c0.2,-0.4 0.5,-0.8 0.8,-1c0.3,-0.2 0.7,-0.4 1.1,-0.5c0.4,-0.1 0.9,-0.2 1.3,-0.2l2.7,0l0,-0.6c0,-0.9 -0.6,-1.4 -1.8,-1.4c-0.4,0 -0.9,0.1 -1.3,0.3c-0.4,0.2 -0.7,0.5 -1,0.9l-1.3,-1.2c0.5,-0.5 1,-0.9 1.6,-1.2c0.6,-0.3 1.3,-0.4 2,-0.4c0.6,0 1.2,0.1 1.7,0.3c0.5,0.2 0.9,0.4 1.2,0.7c0.3,0.3 0.5,0.6 0.7,1c0.1,0.3 0.2,0.7 0.2,1.1l0,6.6l-2,0l0,-1c-0.3,0.4 -0.7,0.7 -1.2,0.9c-0.5,0.2 -1,0.3 -1.4,0.3c-1.1,0 -1.9,-0.3 -2.6,-0.8c-0.7,-0.5 -1,-1.4 -1,-2.3Zm2,0.1c0.1,0.8 0.7,1.3 1.8,1.3c0.8,0 1.4,-0.2 1.8,-0.5c0.4,-0.3 0.6,-0.6 0.6,-1l0,-1.4l-2.4,0c-0.6,0 -1.1,0.1 -1.4,0.4c-0.3,0.2 -0.4,0.6 -0.4,1c0,0 0,0.1 0,0.2Z" style="fill:#383938;fill-rule:nonzero;"/><path d="M171.4,49.6l0,-14.3l2,0l0,8.2l3.8,-3.3l3,0l-4.4,3.7l4.6,5.7l-2.4,0l-3.6,-4.5l-1,0.9l0,3.7l-2,0l0,-0.1Z" style="fill:#383938;fill-rule:nonzero;"/><path d="M181.6,41.8l0,-1.6l1.1,0l0,-0.9c0,-0.8 0,-1.3 0.1,-1.6c0.1,-0.3 0.2,-0.7 0.5,-1.1c0.5,-0.9 1.5,-1.3 2.7,-1.3c0.4,0 0.8,0.1 1.1,0.3l0,1.5c-0.3,-0.1 -0.5,-0.2 -0.8,-0.2c-0.2,0 -0.4,0 -0.6,0.1c-0.3,0.1 -0.6,0.3 -0.7,0.5c-0.1,0.2 -0.2,0.4 -0.3,0.7c-0.1,0.3 -0.1,0.7 -0.1,1.2l0,0.9l2.4,0l0,1.6l-2.4,0l0,7.8l-2,0l0,-7.8l-1,0l0,-0.1Z" style="fill:#383938;fill-rule:nonzero;"/><path d="M188.5,46.8c0,-0.6 0.1,-1.1 0.3,-1.5c0.2,-0.4 0.5,-0.8 0.8,-1c0.3,-0.2 0.7,-0.4 1.1,-0.5c0.4,-0.1 0.9,-0.2 1.3,-0.2l2.7,0l0,-0.6c0,-0.9 -0.6,-1.4 -1.8,-1.4c-0.4,0 -0.9,0.1 -1.3,0.3c-0.4,0.2 -0.7,0.5 -1,0.9l-1.3,-1.2c0.5,-0.5 1,-0.9 1.6,-1.2c0.6,-0.3 1.3,-0.4 2,-0.4c0.6,0 1.2,0.1 1.7,0.3c0.5,0.2 0.9,0.4 1.2,0.7c0.3,0.3 0.5,0.6 0.7,1c0.1,0.3 0.2,0.7 0.2,1.1l0,6.6l-2,0l0,-1c-0.3,0.4 -0.7,0.7 -1.2,0.9c-0.5,0.2 -1,0.3 -1.4,0.3c-1.1,0 -1.9,-0.3 -2.6,-0.8c-0.7,-0.5 -1,-1.4 -1,-2.3Zm2,0.1c0.1,0.8 0.7,1.3 1.8,1.3c0.8,0 1.4,-0.2 1.8,-0.5c0.4,-0.3 0.6,-0.6 0.6,-1l0,-1.4l-2.4,0c-0.6,0 -1.1,0.1 -1.4,0.4c-0.3,0.2 -0.4,0.6 -0.4,1c0,0 0,0.1 0,0.2Z" style="fill:#383938;fill-rule:nonzero;"/><path d="M198.7,48.3l1.3,-1.3c0.5,0.7 1.2,1 2.1,1c0.5,0 0.9,-0.1 1.2,-0.2c0.3,-0.1 0.6,-0.4 0.7,-0.6c0,-0.1 0,-0.2 0.1,-0.3c0.1,-0.1 0,-0.2 0,-0.2c0,-0.1 0,-0.1 0,-0.2l0,-0.1c0,-0.1 -0.1,-0.2 -0.1,-0.2c-0.1,-0.1 -0.1,-0.1 -0.2,-0.2c-0.1,-0.1 -0.2,-0.1 -0.2,-0.1c0,0 -0.2,-0.1 -0.3,-0.1c-0.2,0 -0.3,-0.1 -0.3,-0.1c-0.1,0 -0.2,0 -0.4,-0.1c-0.2,0 -0.3,-0.1 -0.4,-0.1c-0.4,-0.1 -0.7,-0.2 -1,-0.3c-0.2,-0.1 -0.5,-0.2 -0.8,-0.3c-0.3,-0.1 -0.6,-0.3 -0.8,-0.6c-0.2,-0.2 -0.4,-0.5 -0.5,-0.8c-0.1,-0.3 -0.2,-0.6 -0.2,-0.9c0,-0.4 0.1,-0.8 0.3,-1.3c0.1,-0.3 0.3,-0.5 0.6,-0.7c0.2,-0.2 0.5,-0.4 0.7,-0.5c0.2,-0.1 0.5,-0.2 0.7,-0.2c0.3,-0.1 0.5,-0.1 0.6,-0.1c0.1,0 0.2,0 0.3,0c0.7,0 1.3,0.1 1.9,0.4c0.6,0.2 1.1,0.6 1.5,1l-1.3,1.3c-0.5,-0.7 -1.2,-1 -2.1,-1l-0.1,0c-0.1,0 -0.2,0 -0.3,0c-0.1,0 -0.3,0.1 -0.4,0.1c-0.1,0 -0.2,0.1 -0.4,0.2c-0.1,0.1 -0.2,0.2 -0.3,0.3c-0.1,0.1 -0.1,0.3 -0.1,0.5c0,0.1 0,0.2 0.1,0.3c0.1,0.2 0.3,0.4 0.6,0.5c0.3,0.1 0.7,0.2 1.2,0.4c0.1,0 0.1,0 0.2,0c0.3,0.1 0.5,0.1 0.6,0.2c0.1,0.1 0.3,0.1 0.6,0.2c0.3,0.1 0.5,0.2 0.6,0.2c0.1,0.1 0.3,0.2 0.5,0.3c0.2,0.1 0.3,0.3 0.5,0.4c0.1,0.2 0.2,0.4 0.3,0.6c0.1,0.3 0.2,0.7 0.2,1c0,0.4 -0.1,0.7 -0.2,1c-0.2,0.6 -0.7,1 -1.3,1.3c-0.6,0.3 -1.3,0.5 -2.1,0.5c-0.6,0 -1.3,-0.1 -1.8,-0.4c-0.8,0 -1.3,-0.3 -1.8,-0.8Z" style="fill:#383938;fill-rule:nonzero;"/><path d="M207.4,41.8l0,-1.6l1.1,0l0,-3l2,0l0,3l2.4,0l0,1.6l-2.4,0l0,3.7c0,0.8 0.1,1.4 0.2,1.7c0.1,0.3 0.4,0.6 0.9,0.8c0.2,0.1 0.4,0.1 0.6,0.1c0.2,0 0.5,-0.1 0.8,-0.2l0,1.5c-0.3,0.2 -0.7,0.3 -1.1,0.3c-1.3,0 -2.2,-0.4 -2.7,-1.3c-0.3,-0.4 -0.4,-0.8 -0.5,-1.2c-0.1,-0.4 -0.1,-0.9 -0.1,-1.7l0,-3.7l-1.2,0l0,0Z" style="fill:#383938;fill-rule:nonzero;"/></g></svg>