<?xml version="1.0" encoding="utf-8"?>
<!-- Generator: Adobe Illustrator 17.1.0, SVG Export Plug-In . SVG Version: 6.00 Build 0)  -->
<!DOCTYPE svg PUBLIC "-//W3C//DTD SVG 1.1//EN" "http://www.w3.org/Graphics/SVG/1.1/DTD/svg11.dtd">
<svg version="1.1" id="Layer_1" xmlns="http://www.w3.org/2000/svg" xmlns:xlink="http://www.w3.org/1999/xlink" x="0px" y="0px"
	 viewBox="0 0 100 100" enable-background="new 0 0 100 100" xml:space="preserve">
<g id="Cu1nFO.tif">
	<g>
		<path d="M1.5,79.7c0-19.9,0-39.8,0-59.7c10.5,0,21,0,31.5,0c0.9,0.2,1.7,0.3,2.6,0.5c7.7,1.2,12.5,6.1,13.1,13.8
			c0.3,3.8-0.2,7.4-2.9,10.3c-1.1,1.2-2.6,2.1-3.8,3.2c1.1,0.6,2.3,1.2,3.5,2.1c3.4,2.6,5,6.2,5.2,10.3c0.5,6.6-1.8,12-7.1,16.1
			c-3.5,2.7-7.8,3.4-12,3.5C21.5,79.8,11.5,79.7,1.5,79.7z M13.7,69.2c5.6,0,11.1,0.2,16.5,0c5.7-0.2,8-3.8,7.8-8.9
			c-0.2-3.7-2.3-6.2-6-6.4c-6-0.4-12.1-0.3-18.1-0.3c0,0-0.1,0-0.1,0.1C13.7,58.8,13.7,64,13.7,69.2z M13.6,43.4
			c0.2,0.1,0.3,0.1,0.5,0.1c4.9,0,9.9,0.1,14.8-0.1c1.8-0.1,3.6-0.6,5.2-1.3c3.5-1.4,3.4-8.1,0.9-9.9c-0.6-0.4-1.2-0.9-1.9-1
			c-1.6-0.3-3.2-0.7-4.8-0.7c-4.1-0.1-8.2,0-12.2-0.1c-0.8,0-1.5,0-2.3,0c0,0.3-0.1,0.4-0.1,0.6C13.6,35.1,13.6,39.2,13.6,43.4z"/>
		<path d="M97.9,55c0,1.9,0,3.9,0,5.8c-0.5,0-1,0.1-1.5,0.1c-9.7,0-19.4,0-29.2,0c-0.5,0-1,0-1.6,0c0.1,0.9,0.2,1.6,0.3,2.4
			c0.7,4.3,3.6,7.4,7.7,8.2c4.9,1,9.1-0.1,11.5-4.1c0.2-0.4,0.8-0.6,1.3-0.7c3.3-0.1,6.6,0,9.9,0c0.3,0,0.6,0.1,1,0.1
			c-0.2,0.9-0.4,1.7-0.7,2.4c-2.8,6.2-7.6,9.9-14.1,11.3c-1.4,0.3-3.9,0.7-6.7,0.7l0,0c0,0-3.7-0.2-7.8-1.5
			c-6.5-2.1-11.2-6.3-13-13.1c-1.5-5.9-1.5-11.9,0.2-17.8c1.9-6.4,6-10.8,12.3-13.2c4-1.5,8.2-1.6,12.4-1.1c8.5,1,15,6.7,17,15
			C97.4,51.4,97.6,53.2,97.9,55z M85.7,53.2c-0.1-5.4-4.2-9.5-10.8-9.2c-5.4,0.3-8.6,5-8.7,9.2C72.7,53.2,79.1,53.2,85.7,53.2z"/>
		<path d="M88,23.5c0,2,0,3.9,0,5.9c-8.6,0-17.2,0-25.8,0c0-2,0-3.9,0-5.9C70.8,23.5,79.4,23.5,88,23.5z"/>
	</g>
</g>
</svg>
